<svg width="1000" height="1000" viewBox="0 0 1000 1000" fill="none" xmlns="http://www.w3.org/2000/svg">
<path d="M242.19 270.786C133.314 231.927 -44.9491 223.525 113.009 500.792L242.19 270.786Z" fill="#6DBFD5" stroke="black" stroke-width="8.40203"/>
<path d="M110.907 535.45C105.865 811.037 357.366 872.232 483.747 868.381H615.028C801.553 868.381 889.494 800.464 910.149 766.506C1002.57 615.27 896.846 519.346 832.43 490.289C812.265 247.471 603.475 198.669 501.6 204.62C373.47 200.069 115.948 259.864 110.907 535.45Z" fill="#6EC0D5" stroke="black" stroke-width="8.40203"/>
<path d="M403.93 210.922C430.886 151.057 505.384 67.2468 587.724 210.922C557.967 204.97 479.548 196.638 403.93 210.922Z" fill="#6DBFD5" stroke="black" stroke-width="8.40203"/>
<path d="M147.676 698.24L201.239 656.229M206.49 774.908L257.952 710.843M286.309 828.471L331.47 757.054" stroke="black" stroke-width="12.603"/>
<path d="M873.394 804.315L810.379 739.2M934.309 721.345L870.243 675.134" stroke="black" stroke-width="12.603"/>
<path d="M434.394 712.943C432.003 686.687 439.645 651.678 445.947 631.023L487.959 590.063L677.004 604.767C715.654 661.901 698.006 725.546 690.658 743.401C628.379 894.715 442.237 799.064 434.394 712.943Z" fill="#CF3D40" stroke="black" stroke-width="8.40203" stroke-linecap="round" stroke-linejoin="round"/>
<path d="M437.541 676.184C481.652 673.734 585.207 709.792 608.733 819.019C557.271 837.923 414.015 788.771 437.541 676.184Z" fill="#CC5257" stroke="black" stroke-width="8.40203" stroke-linecap="round" stroke-linejoin="round"/>
<path d="M746.312 487.139C746.312 543.556 695.04 590.064 630.784 590.064C566.528 590.064 515.256 543.556 515.256 487.139C515.256 430.722 566.528 384.214 630.784 384.214C695.04 384.214 746.312 430.722 746.312 487.139Z" fill="#F3F1E4" stroke="black" stroke-width="8.40203"/>
<circle cx="700.101" cy="489.24" r="39.9096" fill="#0098EA" stroke="black" stroke-width="8.40203"/>
<path d="M465.881 576.41C464.201 578.091 451.878 612.819 445.926 629.973C444.463 634.174 470.523 612.119 483.735 600.566C498.019 605.607 541.499 616.67 561.454 621.571C723.193 652.028 709.54 574.31 564.605 570.109C547.775 569.621 467.982 574.31 465.881 576.41Z" fill="#C3DDD9" stroke="black" stroke-width="8.40203" stroke-linecap="round"/>
<path d="M553.047 589.013C532.882 585.652 534.842 576.41 538.343 572.209C566.911 567.168 602.759 572.909 617.112 576.41C624.464 591.113 609.76 592.164 608.71 592.164C607.66 592.164 578.253 593.214 553.047 589.013Z" fill="#C85236" stroke="black" stroke-width="8.40203" stroke-linecap="round"/>
<path d="M585.607 593.214L600.311 625.772" stroke="black" stroke-width="8.40203" stroke-linecap="round"/>
<path d="M285.458 372.806C296.239 360.37 327.419 336.607 365.896 341.035" stroke="black" stroke-width="33.6081" stroke-linecap="round"/>
<path d="M610.824 323.313C627.628 322.963 670.269 329.194 706.397 356.921" stroke="black" stroke-width="33.6081" stroke-linecap="round"/>
<path d="M475.353 487.139C475.353 543.556 424.081 590.064 359.825 590.064C295.569 590.064 244.297 543.556 244.297 487.139C244.297 430.722 295.569 384.214 359.825 384.214C424.081 384.214 475.353 430.722 475.353 487.139Z" fill="#F3F1E4" stroke="black" stroke-width="8.40203"/>
<circle cx="429.144" cy="489.24" r="39.9096" fill="#0098EA" stroke="black" stroke-width="8.40203"/>
<path d="M432.465 506.418C434.081 509.219 438.124 509.219 439.741 506.418L454.048 481.636C455.665 478.836 453.644 475.335 450.41 475.335H421.795C418.561 475.335 416.54 478.836 418.157 481.636L432.465 506.418Z" fill="#D9D9D9"/>
<path d="M421.389 481.518C420.605 480.043 421.455 478.267 422.944 478.267L432.355 478.266C433.472 478.266 434.428 479.304 434.464 480.555L434.999 499.261C435.064 501.528 432.4 502.227 431.334 500.223L421.389 481.518Z" fill="#0098EA"/>
<path d="M450.867 481.518C451.651 480.043 450.801 478.267 449.312 478.267L439.901 478.266C438.784 478.266 437.828 479.304 437.792 480.555L437.257 499.261C437.192 501.528 439.856 502.227 440.922 500.223L450.867 481.518Z" fill="#0098EA"/>
<path d="M703.429 506.418C705.046 509.219 709.089 509.219 710.706 506.418L725.013 481.637C726.63 478.836 724.609 475.335 721.375 475.335H692.76C689.526 475.335 687.505 478.836 689.122 481.637L703.429 506.418Z" fill="#D9D9D9"/>
<path d="M692.354 481.518C691.57 480.044 692.42 478.268 693.909 478.267L703.319 478.267C704.437 478.267 705.393 479.304 705.429 480.555L705.964 499.261C706.029 501.528 703.365 502.228 702.299 500.224L692.354 481.518Z" fill="#0098EA"/>
<path d="M721.832 481.518C722.616 480.044 721.766 478.268 720.276 478.267L710.866 478.267C709.749 478.267 708.792 479.304 708.757 480.555L708.222 499.261C708.157 501.528 710.821 502.228 711.886 500.224L721.832 481.518Z" fill="#0098EA"/>
</svg>
