<svg width="3428" height="3343" viewBox="0 0 3428 3343" fill="none" xmlns="http://www.w3.org/2000/svg">
<path d="M2487.74 1180.35C2498.71 1779.89 1951.56 1913.03 1676.62 1904.65L1391.01 1982.33V1904.65C985.221 1904.65 793.902 1756.89 748.966 1683.02C547.898 1354 777.907 1145.31 918.046 1082.1C961.915 553.838 1416.15 447.668 1637.78 460.616C1916.53 450.715 2476.78 580.799 2487.74 1180.35Z" fill="#6EC0D5" stroke="black" stroke-width="18.2789"/>
<path d="M2390.09 1337.27C2476.55 1543 2577.68 1480.14 2617.43 1422.99L2546.62 919.856L2315.55 502.439H1450.9C1293.13 538.466 973.854 623.937 958.946 677.605C940.311 744.69 985.035 793.14 999.942 793.14C1011.87 793.14 1022.3 750.901 1026.03 729.782C1655.88 554.616 2222.38 785.686 2337.91 867.678C2453.44 949.671 2390.09 1027.94 2367.73 1124.84C2349.84 1202.36 2375.18 1298.76 2390.09 1337.27Z" fill="#B0917F" stroke="black" stroke-width="13.7092" stroke-linecap="round"/>
<path d="M2561.53 442.787C2874.59 851.258 2729.24 1261.47 2617.43 1415.52C2501.9 1504.94 2434.81 1221.74 2460.9 1113.66C2468.99 1080.11 2483.26 1083.84 2479.53 957.125C2476.55 855.753 2386.36 783.202 2341.63 759.598C1840.73 497.222 1205.37 588.159 950.296 666.425C951.766 629.813 959.167 593.775 966.396 569.502C1008.14 414.462 1119.2 297.068 1301.82 248.986C1981.59 70.0111 2424.87 303.648 2561.53 442.787Z" fill="#B15A46"/>
<path d="M1026.03 729.783C1014.85 755.871 1007.39 798.11 996.212 793.141C957.883 770.493 948.229 717.892 950.296 666.425M950.296 666.425C951.766 629.813 959.167 593.775 966.396 569.502C1008.14 414.462 1119.2 297.068 1301.82 248.986C1981.59 70.0111 2424.87 303.648 2561.53 442.787C2874.59 851.258 2729.24 1261.47 2617.43 1415.52C2501.9 1504.94 2434.81 1221.74 2460.9 1113.66C2468.99 1080.11 2483.26 1083.84 2479.53 957.125C2476.55 855.753 2386.36 783.202 2341.63 759.598C1840.73 497.222 1205.37 588.159 950.296 666.425Z" stroke="black" stroke-width="18.2789" stroke-linecap="round"/>
<path d="M2449.6 621.701C2527.96 763.325 2607.49 670.152 2553.96 565.798C2479.42 420.447 2363.88 375.724 2285.62 375.724C2207.35 375.724 2233.44 476.351 2285.62 483.805C2337.8 491.259 2378.79 524.801 2397.43 547.163C2412.33 565.052 2438.42 604.309 2449.6 621.701Z" fill="#B48576"/>
<path d="M2520.9 1150.55C2515.78 1187.37 2519.26 1221.48 2528.71 1246.8C2538.27 1272.4 2553.16 1287.35 2569.87 1289.68C2586.58 1292 2604.99 1281.69 2621.17 1259.67C2637.18 1237.9 2649.85 1206.03 2654.98 1169.22C2660.1 1132.41 2656.61 1098.29 2647.16 1072.97C2637.61 1047.37 2622.71 1032.42 2606.01 1030.1C2589.3 1027.77 2570.89 1038.08 2554.7 1060.1C2538.7 1081.88 2526.02 1113.74 2520.9 1150.55Z" fill="#9F908B" stroke="black" stroke-width="13.7092"/>
<path d="M2526.7 1152.1C2522.65 1181.18 2524.95 1208 2531.64 1227.76C2538.47 1247.95 2549.01 1258.7 2560.05 1260.23C2571.08 1261.77 2584.16 1254.31 2596.25 1236.75C2608.07 1219.57 2617.61 1194.4 2621.66 1165.32C2625.71 1136.24 2623.41 1109.42 2616.72 1089.66C2609.89 1069.47 2599.35 1058.73 2588.31 1057.19C2577.27 1055.65 2564.2 1063.11 2552.11 1080.67C2540.29 1097.85 2530.75 1123.02 2526.7 1152.1Z" fill="#5E2B1A" stroke="black" stroke-width="13.7092"/>
<path d="M2407.77 1534.5L2291.25 1443.11M2279.82 1701.29L2167.86 1561.92M2106.17 1817.82L2007.92 1662.45" stroke="black" stroke-width="27.4183"/>
<path d="M828.936 1765.27L966.027 1623.61M696.414 1584.77L835.79 1484.23" stroke="black" stroke-width="27.4183"/>
<circle cx="1303.5" cy="1071.5" r="223.36" fill="#F3F1E4" stroke="black" stroke-width="18.28"/>
<path d="M1160 1242C1153.5 1119.5 1401 1085 1454 1230.5C1411.83 1278.83 1294 1348.8 1160 1242Z" fill="black" stroke="black" stroke-width="18.28" stroke-linecap="round" stroke-linejoin="round"/>
<circle cx="1897.5" cy="1086.5" r="223.36" fill="#F3F1E4" stroke="black" stroke-width="18.28"/>
<path d="M1754 1257C1747.5 1134.5 1995 1100 2048 1245.5C2005.83 1293.83 1888 1363.8 1754 1257Z" fill="black" stroke="black" stroke-width="18.28" stroke-linecap="round" stroke-linejoin="round"/>
<path d="M1715.45 1269.46C1719.11 1273.11 1745.92 1348.67 1758.86 1385.99C1762.05 1395.13 1705.35 1347.14 1676.61 1322.01C1645.53 1332.98 1550.94 1357.04 1507.53 1367.71C1155.66 1433.97 1185.36 1264.89 1500.67 1255.75C1537.29 1254.69 1710.88 1264.89 1715.45 1269.46Z" fill="#C3DDD9" stroke="black" stroke-width="18.2789" stroke-linecap="round"/>
<path d="M1525.81 1296.88C1569.68 1289.57 1565.42 1269.46 1557.8 1260.32C1495.65 1249.35 1417.66 1261.84 1386.44 1269.46C1370.44 1301.45 1402.43 1303.73 1404.72 1303.73C1407 1303.73 1470.98 1306.02 1525.81 1296.88Z" fill="#C85236" stroke="black" stroke-width="18.2789" stroke-linecap="round"/>
<path d="M1454.97 1306.02L1422.98 1376.85" stroke="black" stroke-width="18.2789" stroke-linecap="round"/>
<path d="M2283.01 3089.96C2257.25 3073.98 2237.07 3071.28 2230.2 3071.92L2252.09 2957.27L2506.52 2916.69C2520.26 2947.18 2530.6 3020.91 2462.07 3071.92C2376.41 3135.69 2315.22 3109.92 2283.01 3089.96Z" fill="#3C3C3C"/>
<ellipse cx="2364.81" cy="2970.8" rx="123.023" ry="119.803" fill="#DCD9CF"/>
<path d="M2005.4 2970.15L2079.48 2932.15L2380.27 2947.61C2402.17 3055.17 2304.26 3051.31 2268.84 3060.97C2233.41 3070.63 2231.48 3105.41 2222.46 3133.11C2215.25 3155.27 2238.66 3081.54 2209.58 3159.52C2180.5 3237.5 2018.8 3248.15 1966.76 3159.52C1914.71 3070.89 1970.84 2996.35 2005.4 2970.15Z" fill="#3C3C3C"/>
<ellipse cx="2094.29" cy="3084.16" rx="115.294" ry="106.921" fill="#DDDACF"/>
<circle cx="2071.74" cy="3090.6" r="46.3753" fill="#9E978B"/>
<path d="M2062.73 3080.29L2080.76 3102.19" stroke="#68655D" stroke-width="12.882" stroke-linecap="round"/>
<path d="M1288.41 3089.96C1262.65 3073.98 1242.47 3071.28 1235.6 3071.92L1257.5 2957.27L1511.92 2916.69C1525.66 2947.18 1536.01 3020.91 1467.47 3071.92C1381.81 3135.69 1320.62 3109.92 1288.41 3089.96Z" fill="#3C3C3C"/>
<ellipse cx="1370.21" cy="2970.8" rx="123.023" ry="119.803" fill="#DCD9CF"/>
<path d="M1010.4 2970.15L1084.48 2932.15L1385.27 2947.61C1407.17 3055.17 1309.26 3051.31 1273.84 3060.97C1238.41 3070.63 1236.48 3105.41 1227.46 3133.11C1220.25 3155.27 1243.66 3081.54 1214.58 3159.52C1185.5 3237.5 1023.8 3248.15 971.757 3159.52C919.714 3070.89 975.837 2996.35 1010.4 2970.15Z" fill="#3C3C3C"/>
<ellipse cx="1099.69" cy="3084.16" rx="115.294" ry="106.921" fill="#DDDACF"/>
<circle cx="1077.14" cy="3090.6" r="46.3753" fill="#9E978B"/>
<path d="M1068.13 3080.29L1086.16 3102.19" stroke="#68655D" stroke-width="12.882" stroke-linecap="round"/>
<path d="M1053.41 2738.28L1456.62 2743.43H2041.47C2174.8 2743.43 2722.93 2672.58 2778.97 2711.87C2835 2751.16 2755.13 2851.64 2541.94 2907.68C2371.38 2952.5 2224.82 2959.42 2172.87 2957.27C1779.75 2952.12 985.785 2941.55 954.868 2940.52C916.222 2939.24 725.567 2959.2 711.396 2832.96C700.06 2731.96 934.685 2727.76 1053.41 2738.28Z" fill="#24302E" stroke="black" stroke-width="23.5484" stroke-linecap="round" stroke-linejoin="round"/>
<path d="M956.157 2899.95C797.45 2898.4 730.721 2851.21 717.195 2827.81L722.348 2872.89L739.095 2894.15L759.706 2914.12L840.863 2934.08L904.629 2939.88L1059.21 2945.03L1663.38 2952.76H2040.18H2310.06L2554.17 2903.81L2711.98 2840.04L2775.75 2789.16L2797 2746.65L2787.34 2729.9C2757.71 2767.91 2567.06 2860.66 2408.61 2891.57C2281.85 2916.31 2080.97 2916.48 1996.38 2913.47C1715.77 2909.61 1114.86 2901.49 956.157 2899.95Z" fill="#C8CCC5" stroke="black" stroke-width="1.2882" stroke-linecap="round" stroke-linejoin="round"/>
<path d="M1053.41 2738.28L1456.62 2743.43H2041.47C2174.8 2743.43 2722.93 2672.58 2778.97 2711.87C2835 2751.16 2755.13 2851.64 2541.94 2907.68C2371.38 2952.5 2224.82 2959.42 2172.87 2957.27C1779.75 2952.12 985.785 2941.55 954.868 2940.52C916.222 2939.24 725.567 2959.2 711.396 2832.96C700.06 2731.96 934.685 2727.76 1053.41 2738.28Z" stroke="black" stroke-width="23.5484" stroke-linecap="round" stroke-linejoin="round"/>
<path d="M2031.08 2367.14C1987.26 2388.24 1924.91 2432.74 1899.21 2452.35C1918.37 2480.98 2053.4 2572.73 2156.87 2452.35C2260.34 2331.97 2095.33 2336.2 2031.08 2367.14Z" fill="#0C9BB3" stroke="black" stroke-width="24.7247" stroke-linecap="round" stroke-linejoin="round"/>
<path d="M1804.53 2495.63H1560.39L1571.89 2611.27H1768.01L1804.53 2495.63Z" fill="#3E5153" stroke="black" stroke-width="24.7247" stroke-linecap="round" stroke-linejoin="round"/>
<path d="M1519.14 2473.99L1598.26 2549.73L1577.98 2612.63L1495.47 2609.05L1281.09 2599.78L1238.48 2473.99H1419.73H1519.14Z" fill="#3E5153"/>
<path d="M1419.73 2473.99H1519.14L1598.26 2549.73L1577.98 2612.63L1495.47 2609.05M1419.73 2473.99H1238.48L1281.09 2599.78L1495.47 2609.05M1419.73 2473.99C1422.88 2518.05 1442.45 2606.76 1495.47 2609.05" stroke="black" stroke-width="24.7247" stroke-linecap="round" stroke-linejoin="round"/>
<path d="M1018.69 2814.16C981.364 2715.15 1081.59 2696.71 1136.37 2699.87L1316.26 2762.76C1314.9 2816.86 1295.97 2832.42 1172.21 2848.65C1134.45 2853.6 1104.61 2852.22 1081.59 2847.67C1044.24 2840.3 1024.83 2824.62 1018.69 2814.16Z" fill="#0C9AAF"/>
<path d="M1018.69 2814.16C981.364 2715.15 1081.59 2696.71 1136.37 2699.87L1316.26 2762.76C1314.9 2816.86 1295.97 2832.42 1172.21 2848.65C1134.45 2853.6 1104.61 2852.22 1081.59 2847.67M1018.69 2814.16C1024.83 2824.62 1044.24 2840.3 1081.59 2847.67M1018.69 2814.16C1024.78 2803.34 1044.26 2777.64 1073.47 2761.41M1081.59 2847.67C1087.9 2832.44 1107.69 2796.44 1136.37 2774.26" stroke="black" stroke-width="24.7247" stroke-linecap="round" stroke-linejoin="round"/>
<path d="M1249.98 2616.01L1312.88 2759.38L1116.08 2701.89L1088.35 2616.01H1249.98Z" fill="#A4AAA5" stroke="black" stroke-width="24.7247" stroke-linecap="round" stroke-linejoin="round"/>
<path d="M1096.47 2634.27C1086.32 2614.2 1061.84 2568.53 1045.07 2546.35C1024.1 2518.62 1038.31 2396.22 1175.59 2444.23C1225.99 2461.86 1251.64 2469.53 1262.94 2471.77L1260.12 2464.52C1269.64 2469.52 1276.26 2474.42 1262.94 2471.77L1316.26 2609.24C1297.55 2607.22 1260.12 2609.38 1260.12 2634.27C1247.95 2637.65 1198.18 2642.38 1096.47 2634.27Z" fill="black"/>
<path d="M1096.47 2634.27C1086.32 2614.2 1061.84 2568.53 1045.07 2546.35C1024.1 2518.62 1038.31 2396.22 1175.59 2444.23C1285.42 2482.64 1277.71 2473.76 1260.12 2464.52L1316.26 2609.24C1297.55 2607.22 1260.12 2609.38 1260.12 2634.27C1247.95 2637.65 1198.18 2642.38 1096.47 2634.27Z" stroke="black" stroke-width="24.7247" stroke-linecap="round" stroke-linejoin="round"/>
<path d="M1821.43 2474.21L1742.31 2549.96L1762.6 2612.85L1845.1 2609.28L2059.48 2600L2102.09 2474.21H1920.85H1821.43Z" fill="#3E5153"/>
<path d="M1920.85 2474.21H1821.43L1742.31 2549.96L1762.6 2612.85L1845.1 2609.28M1920.85 2474.21H2102.09L2059.48 2600L1845.1 2609.28M1920.85 2474.21C1917.69 2518.28 1898.12 2606.99 1845.1 2609.28" stroke="black" stroke-width="24.7247" stroke-linecap="round" stroke-linejoin="round"/>
<path d="M2321.88 2814.38C2359.21 2715.38 2258.99 2696.94 2204.21 2700.09L2024.32 2762.99C2025.67 2817.09 2044.61 2832.64 2168.37 2848.87C2206.12 2853.82 2235.96 2852.44 2258.99 2847.9C2296.34 2840.53 2315.74 2824.84 2321.88 2814.38Z" fill="#0C9AAF"/>
<path d="M2321.88 2814.38C2359.21 2715.38 2258.99 2696.94 2204.21 2700.09L2024.32 2762.99C2025.67 2817.09 2044.61 2832.64 2168.37 2848.87C2206.12 2853.82 2235.96 2852.44 2258.99 2847.9M2321.88 2814.38C2315.74 2824.84 2296.34 2840.53 2258.99 2847.9M2321.88 2814.38C2315.79 2803.56 2296.32 2777.86 2267.1 2761.63M2258.99 2847.9C2252.67 2832.67 2232.88 2796.66 2204.21 2774.48" stroke="black" stroke-width="24.7247" stroke-linecap="round" stroke-linejoin="round"/>
<path d="M2090.59 2616.23L2027.7 2759.6L2224.5 2702.12L2252.22 2616.23H2090.59Z" fill="#A4AAA5" stroke="black" stroke-width="24.7247" stroke-linecap="round" stroke-linejoin="round"/>
<path d="M2244.11 2634.49C2254.25 2614.43 2278.73 2568.76 2295.51 2546.58C2316.47 2518.85 2302.27 2396.44 2164.98 2444.46C2114.59 2462.08 2088.94 2469.75 2077.64 2472L2080.45 2464.75C2070.93 2469.75 2064.31 2474.64 2077.64 2472L2024.32 2609.47C2043.03 2607.44 2080.45 2609.6 2080.45 2634.49C2092.62 2637.87 2142.39 2642.61 2244.11 2634.49Z" fill="black"/>
<path d="M2244.11 2634.49C2254.25 2614.43 2278.73 2568.76 2295.51 2546.58C2316.47 2518.85 2302.27 2396.44 2164.98 2444.46C2055.16 2482.87 2062.87 2473.99 2080.45 2464.75L2024.32 2609.47C2043.03 2607.44 2080.45 2609.6 2080.45 2634.49C2092.62 2637.87 2142.39 2642.61 2244.11 2634.49Z" stroke="black" stroke-width="24.7247" stroke-linecap="round" stroke-linejoin="round"/>
<path d="M1096.01 2156.82C1091.68 2136.8 1104.58 2082.65 1111.57 2058.08L989.16 1918.77C923.697 1988.56 923.11 2092.12 931 2135.17C987.808 2150.73 1100.34 2176.83 1096.01 2156.82Z" fill="#623729" stroke="black" stroke-width="24.7247" stroke-linecap="round" stroke-linejoin="round"/>
<path d="M1111.56 2155.46C1105.07 2151.13 1095.33 2133.82 1091.27 2125.71C1032.29 2134.9 959.85 2116.01 931.003 2105.42C820.798 2150.34 780.978 2195.92 782.02 2231.88C782.661 2254.01 798.772 2272.5 823.475 2284.97C881.314 2314.15 986.258 2310.29 1050.02 2242.7C1066.92 2248.11 1200.15 2290.72 1198.8 2222.41C1197.45 2154.11 1119.67 2160.87 1111.56 2155.46Z" fill="#059AB1"/>
<path d="M823.475 2284.97C881.314 2314.15 986.258 2310.29 1050.02 2242.7C1066.92 2248.11 1200.15 2290.72 1198.8 2222.41C1197.45 2154.11 1119.67 2160.87 1111.56 2155.46C1105.07 2151.13 1095.33 2133.82 1091.27 2125.71C1032.29 2134.9 959.85 2116.01 931.003 2105.42C820.798 2150.34 780.978 2195.92 782.02 2231.88M823.475 2284.97C842.185 2268.63 891.508 2233.23 939.118 2222.41M823.475 2284.97C798.772 2272.5 782.661 2254.01 782.02 2231.88M782.02 2231.88C794.26 2219.26 828.614 2191.85 868.109 2183.19" stroke="black" stroke-width="24.7247" stroke-linecap="round" stroke-linejoin="round"/>
<path d="M1242.09 1995.86L1453.17 2028.32L1482.84 1923.5L1242.09 1883.6V1995.86Z" fill="#D0CABE" stroke="black" stroke-width="24.7247" stroke-linecap="round" stroke-linejoin="round"/>
<path d="M1109.54 2067.55C1123.6 2013.99 1216.84 1998.79 1261.7 1997.89L1239.38 1882.92L1059.49 1838.29C1001.6 1870.21 969.096 1912.9 960.079 1930.26L1109.54 2067.55Z" fill="#000002" stroke="black" stroke-width="24.7247" stroke-linecap="round" stroke-linejoin="round"/>
<path d="M2119.68 2136.53C2124 2116.51 2111.11 2062.36 2104.12 2037.79L2226.53 1898.48C2291.99 1968.27 2292.58 2071.83 2284.69 2114.89C2227.88 2130.44 2115.35 2156.54 2119.68 2136.53Z" fill="#623729" stroke="black" stroke-width="24.7247" stroke-linecap="round" stroke-linejoin="round"/>
<path d="M2104.13 2135.17C2110.62 2130.85 2120.36 2113.53 2124.42 2105.42C2183.4 2114.62 2255.84 2095.72 2284.68 2085.13C2394.89 2130.05 2434.71 2175.63 2433.67 2211.59C2433.03 2233.72 2416.92 2252.22 2392.21 2264.68C2334.37 2293.87 2229.43 2290 2165.67 2222.41C2148.76 2227.82 2015.54 2270.43 2016.89 2202.13C2018.24 2133.82 2096.01 2140.58 2104.13 2135.17Z" fill="#059AB1"/>
<path d="M2392.21 2264.68C2334.37 2293.87 2229.43 2290 2165.67 2222.41C2148.76 2227.82 2015.54 2270.43 2016.89 2202.13C2018.24 2133.82 2096.01 2140.58 2104.13 2135.17C2110.62 2130.85 2120.36 2113.53 2124.42 2105.42C2183.4 2114.62 2255.84 2095.72 2284.68 2085.13C2394.89 2130.05 2434.71 2175.63 2433.67 2211.59M2392.21 2264.68C2373.5 2248.34 2324.18 2212.95 2276.57 2202.13M2392.21 2264.68C2416.92 2252.22 2433.03 2233.72 2433.67 2211.59M2433.67 2211.59C2421.43 2198.97 2387.07 2171.56 2347.58 2162.9" stroke="black" stroke-width="24.7247" stroke-linecap="round" stroke-linejoin="round"/>
<path d="M1973.6 1974.22L1762.52 2006.68L1732.84 1901.86L1973.6 1861.96V1974.22Z" fill="#D0CABE" stroke="black" stroke-width="24.7247" stroke-linecap="round" stroke-linejoin="round"/>
<path d="M2106.15 2047.26C2092.08 1993.7 1998.85 1978.5 1953.99 1977.6L1976.31 1862.63L2156.2 1818C2214.08 1849.92 2246.59 1892.62 2255.61 1909.97L2106.15 2047.26Z" fill="#000002" stroke="black" stroke-width="24.7247" stroke-linecap="round" stroke-linejoin="round"/>
<path d="M1510.35 2419.89L1429.87 1899.15H1760.57L1839.02 2419.89C1911.52 2438.82 1918.37 2480.08 1912.73 2498.34H1429.87C1429.87 2446.94 1483.52 2424.62 1510.35 2419.89Z" fill="#CFCABE" stroke="black" stroke-width="24.7247" stroke-linecap="round" stroke-linejoin="round"/>
<path d="M1727 1899.15L1447.45 1988.72L1463.74 2100.68L1769.36 1973.57L1755.68 1899.15H1727Z" fill="#62382A" stroke="black" stroke-width="24.7247" stroke-linecap="round" stroke-linejoin="round"/>
<path d="M1609.19 1843.4C2210.3 1855.57 2427.73 1604.56 2445.47 1443C2469.8 1465.3 2510.31 1485.66 2528.47 1490.52C2409.36 1891.93 1875.91 1909.29 1594.61 1909.29C1474.24 1909.29 1206.12 1927.03 1096.64 1909.29C987.166 1891.55 901.932 1828.41 873 1799.06C936.355 1828.45 1076.79 1840.87 1139.09 1843.4C1144.67 1772.95 1204.35 1754.07 1233.49 1753.44C1283.96 1752.81 1409.62 1751.92 1508.45 1753.44C1607.29 1754.96 1611.51 1814.05 1609.19 1843.4Z" fill="black" stroke="black" stroke-width="23.1626" stroke-linecap="round" stroke-linejoin="round"/>
<path d="M1238.55 1752.17C1162.52 1753.19 1129.21 1825.66 1139.08 1844.67C1206.23 1973.91 1312.04 1971.38 1377.29 1971.38C1442.55 1971.38 1545.18 1948.57 1595.87 1858.61C1636.42 1786.64 1562.5 1757.66 1520.48 1752.17C1458.18 1751.75 1314.57 1751.16 1238.55 1752.17Z" fill="#2D3C3B" stroke="black" stroke-width="23.1626" stroke-linecap="round" stroke-linejoin="round"/>
<path d="M1255.03 1821.23C1274.04 1838.76 1343.22 1863.3 1467.9 1821.23" stroke="black" stroke-width="23.1626" stroke-linecap="round" stroke-linejoin="round"/>
<path d="M1243.63 1882.68C1262.64 1900.21 1331.82 1924.75 1456.5 1882.68" stroke="black" stroke-width="23.1626" stroke-linecap="round" stroke-linejoin="round"/>
<path d="M1217 848C1261.67 864.167 1352.4 874.2 1358 785" stroke="black" stroke-width="70" stroke-linecap="round" stroke-linejoin="round"/>
<path d="M1946 865C1901.33 881.167 1810.6 891.2 1805 802" stroke="black" stroke-width="70" stroke-linecap="round" stroke-linejoin="round"/>
</svg>
